<?xml version="1.0" standalone="no"?>
<!DOCTYPE svg PUBLIC "-//W3C//DTD SVG 20010904//EN"
 "http://www.w3.org/TR/2001/REC-SVG-20010904/DTD/svg10.dtd">
<svg version="1.0" xmlns="http://www.w3.org/2000/svg"
 width="218.000000pt" height="176.000000pt" viewBox="0 0 218.000000 176.000000"
 preserveAspectRatio="xMidYMid meet">
<metadata>
Created by potrace 1.13, written by Peter Selinger 2001-2015
</metadata>
<g transform="translate(0.000000,176.000000) scale(0.100000,-0.100000)"
fill="#f00" stroke="none">
<path d="M1075 1310 c-22 -5 -63 -9 -90 -9 -108 -2 -361 -72 -488 -137 -103
-52 -353 -246 -424 -330 l-32 -38 47 -30 c52 -35 143 -80 182 -91 14 -4 39
-13 55 -20 114 -51 356 -115 530 -140 140 -21 423 -16 510 9 28 8 79 16 115
19 37 3 97 18 135 32 39 15 102 38 140 51 39 14 83 32 98 40 16 9 31 14 33 11
11 -11 -77 -80 -137 -108 -34 -16 -76 -42 -94 -58 -21 -18 -48 -30 -79 -34
-26 -4 -62 -13 -79 -21 -122 -55 -395 -87 -585 -67 -165 17 -271 36 -475 87
-98 24 -185 44 -194 44 -8 0 -45 13 -81 29 -37 16 -87 31 -112 34 -50 7 -48 6
60 -39 225 -93 267 -108 370 -135 25 -6 86 -24 135 -40 181 -56 226 -63 440
-63 151 -1 226 3 305 17 119 21 134 26 245 77 44 21 91 41 105 45 14 4 41 17
60 30 19 13 53 34 75 48 69 43 295 251 295 272 -1 21 -149 105 -239 136 -30
11 -64 25 -75 33 -19 12 -208 74 -336 110 -218 61 -749 36 -963 -46 -72 -27
-89 -23 -47 12 19 16 49 34 65 40 17 6 43 18 60 26 65 34 269 94 375 110 147
24 369 37 425 26 28 -6 122 -25 210 -42 96 -19 184 -43 220 -60 33 -15 85 -35
115 -45 30 -10 83 -31 118 -48 62 -29 101 -32 45 -3 -16 8 -36 22 -43 32 -16
19 -269 144 -291 144 -8 0 -62 15 -120 34 -57 19 -139 39 -182 45 -109 15
-354 22 -402 11z m405 -355 c58 -14 143 -35 189 -45 46 -11 103 -31 127 -45
23 -14 48 -25 54 -25 6 0 27 -7 48 -16 l37 -15 -25 -14 c-14 -8 -32 -14 -40
-15 -8 0 -28 -7 -44 -15 -34 -18 -173 -57 -261 -74 -33 -7 -80 -18 -105 -26
-25 -8 -88 -19 -140 -25 -51 -6 -112 -15 -136 -21 -64 -16 -253 -4 -389 25
-66 13 -149 31 -185 39 -36 7 -75 19 -88 26 -13 7 -45 19 -70 26 -26 8 -62 26
-81 39 -18 14 -47 28 -63 32 l-30 6 38 17 c22 10 62 23 89 30 28 8 82 25 120
38 39 14 115 34 170 44 212 42 284 48 485 44 167 -3 210 -8 300 -30z"/>
<path d="M970 851 c-78 -20 -144 -31 -182 -31 -26 0 -38 -4 -36 -12 16 -47
460 -72 610 -33 33 8 73 15 89 15 38 0 29 16 -14 25 -17 4 -51 13 -75 21 -51
17 -340 28 -392 15z"/>
</g>
</svg>
